<svg width="153" height="66" viewBox="0 0 153 66" fill="none" xmlns="http://www.w3.org/2000/svg">
<rect x="0.412109" y="0.26709" width="65.489" height="65.5855" rx="18.1914" fill="#F3F6FF"/>
<path d="M29.5426 30.8855H30.876C31.2296 30.8855 31.5687 30.7448 31.8188 30.4944C32.0688 30.244 32.2093 29.9043 32.2093 29.5502C32.2093 29.1961 32.0688 28.8564 31.8188 28.606C31.5687 28.3556 31.2296 28.2149 30.876 28.2149H29.5426C29.189 28.2149 28.8499 28.3556 28.5998 28.606C28.3498 28.8564 28.2093 29.1961 28.2093 29.5502C28.2093 29.9043 28.3498 30.244 28.5998 30.4944C28.8499 30.7448 29.189 30.8855 29.5426 30.8855ZM29.5426 33.5561C29.189 33.5561 28.8499 33.6968 28.5998 33.9472C28.3498 34.1976 28.2093 34.5372 28.2093 34.8914C28.2093 35.2455 28.3498 35.5852 28.5998 35.8356C28.8499 36.086 29.189 36.2267 29.5426 36.2267H37.5426C37.8963 36.2267 38.2354 36.086 38.4855 35.8356C38.7355 35.5852 38.876 35.2455 38.876 34.8914C38.876 34.5372 38.7355 34.1976 38.4855 33.9472C38.2354 33.6968 37.8963 33.5561 37.5426 33.5561H29.5426ZM44.2093 29.4701C44.1954 29.3474 44.1686 29.2266 44.1293 29.1096V28.9894C44.0652 28.8521 43.9797 28.7259 43.876 28.6155L35.876 20.6037C35.7658 20.4998 35.6397 20.4142 35.5026 20.35C35.4628 20.3443 35.4224 20.3443 35.3826 20.35C35.2472 20.2722 35.0976 20.2223 34.9426 20.2031H26.876C25.8151 20.2031 24.7977 20.6252 24.0475 21.3764C23.2974 22.1277 22.876 23.1466 22.876 24.209V42.9032C22.876 43.9656 23.2974 44.9845 24.0475 45.7358C24.7977 46.487 25.8151 46.9091 26.876 46.9091H40.2093C41.2702 46.9091 42.2876 46.487 43.0377 45.7358C43.7879 44.9845 44.2093 43.9656 44.2093 42.9032V29.5502C44.2093 29.5502 44.2093 29.5502 44.2093 29.4701ZM36.2093 24.7565L39.6626 28.2149H37.5426C37.189 28.2149 36.8499 28.0742 36.5998 27.8238C36.3498 27.5734 36.2093 27.2338 36.2093 26.8796V24.7565ZM41.5426 42.9032C41.5426 43.2573 41.4022 43.597 41.1521 43.8474C40.9021 44.0978 40.5629 44.2385 40.2093 44.2385H26.876C26.5224 44.2385 26.1832 44.0978 25.9332 43.8474C25.6831 43.597 25.5426 43.2573 25.5426 42.9032V24.209C25.5426 23.8549 25.6831 23.5152 25.9332 23.2648C26.1832 23.0144 26.5224 22.8737 26.876 22.8737H33.5426V26.8796C33.5426 27.942 33.9641 28.961 34.7142 29.7122C35.4644 30.4635 36.4818 30.8855 37.5426 30.8855H41.5426V42.9032ZM37.5426 38.8973H29.5426C29.189 38.8973 28.8499 39.038 28.5998 39.2884C28.3498 39.5388 28.2093 39.8784 28.2093 40.2326C28.2093 40.5867 28.3498 40.9264 28.5998 41.1768C28.8499 41.4272 29.189 41.5679 29.5426 41.5679H37.5426C37.8963 41.5679 38.2354 41.4272 38.4855 41.1768C38.7355 40.9264 38.876 40.5867 38.876 40.2326C38.876 39.8784 38.7355 39.5388 38.4855 39.2884C38.2354 39.038 37.8963 38.8973 37.5426 38.8973Z" fill="#7291FF"/>
</svg>
