<svg width="111" height="66" viewBox="0 0 111 66" fill="none" xmlns="http://www.w3.org/2000/svg">
<rect x="0.498047" y="0.26709" width="65.489" height="65.5855" rx="18.1914" fill="#F8F1FF"/>
<path d="M75.4982 28.3979V26.9916H85.3164V28.3979H81.1999V40.0825H79.6147V28.3979H75.4982ZM90.1232 40.2871C89.2369 40.2871 88.4592 40.0761 87.7901 39.6543C87.1254 39.2324 86.6055 38.6422 86.2305 37.8837C85.8597 37.1251 85.6744 36.2388 85.6744 35.2246C85.6744 34.2018 85.8597 33.3091 86.2305 32.5463C86.6055 31.7835 87.1254 31.1912 87.7901 30.7693C88.4592 30.3474 89.2369 30.1365 90.1232 30.1365C91.0096 30.1365 91.7852 30.3474 92.4499 30.7693C93.119 31.1912 93.6388 31.7835 94.0096 32.5463C94.3846 33.3091 94.5721 34.2018 94.5721 35.2246C94.5721 36.2388 94.3846 37.1251 94.0096 37.8837C93.6388 38.6422 93.119 39.2324 92.4499 39.6543C91.7852 40.0761 91.0096 40.2871 90.1232 40.2871ZM90.1232 38.932C90.7965 38.932 91.3505 38.7594 91.7852 38.4142C92.2198 38.069 92.5415 37.6152 92.7504 37.0527C92.9592 36.4902 93.0636 35.8808 93.0636 35.2246C93.0636 34.5683 92.9592 33.9568 92.7504 33.39C92.5415 32.8233 92.2198 32.3652 91.7852 32.0158C91.3505 31.6663 90.7965 31.4916 90.1232 31.4916C89.4499 31.4916 88.896 31.6663 88.4613 32.0158C88.0266 32.3652 87.7049 32.8233 87.4961 33.39C87.2873 33.9568 87.1829 34.5683 87.1829 35.2246C87.1829 35.8808 87.2873 36.4902 87.4961 37.0527C87.7049 37.6152 88.0266 38.069 88.4613 38.4142C88.896 38.7594 89.4499 38.932 90.1232 38.932ZM100.863 40.2871C99.9771 40.2871 99.1994 40.0761 98.5304 39.6543C97.8656 39.2324 97.3457 38.6422 96.9707 37.8837C96.6 37.1251 96.4146 36.2388 96.4146 35.2246C96.4146 34.2018 96.6 33.3091 96.9707 32.5463C97.3457 31.7835 97.8656 31.1912 98.5304 30.7693C99.1994 30.3474 99.9771 30.1365 100.863 30.1365C101.75 30.1365 102.525 30.3474 103.19 30.7693C103.859 31.1912 104.379 31.7835 104.75 32.5463C105.125 33.3091 105.312 34.2018 105.312 35.2246C105.312 36.2388 105.125 37.1251 104.75 37.8837C104.379 38.6422 103.859 39.2324 103.19 39.6543C102.525 40.0761 101.75 40.2871 100.863 40.2871ZM100.863 38.932C101.537 38.932 102.091 38.7594 102.525 38.4142C102.96 38.069 103.282 37.6152 103.491 37.0527C103.699 36.4902 103.804 35.8808 103.804 35.2246C103.804 34.5683 103.699 33.9568 103.491 33.39C103.282 32.8233 102.96 32.3652 102.525 32.0158C102.091 31.6663 101.537 31.4916 100.863 31.4916C100.19 31.4916 99.6362 31.6663 99.2015 32.0158C98.7669 32.3652 98.4451 32.8233 98.2363 33.39C98.0275 33.9568 97.9231 34.5683 97.9231 35.2246C97.9231 35.8808 98.0275 36.4902 98.2363 37.0527C98.4451 37.6152 98.7669 38.069 99.2015 38.4142C99.6362 38.7594 100.19 38.932 100.863 38.932ZM109.124 26.9916V40.0825H107.615V26.9916H109.124Z" fill="#66686D"/>
<path d="M46.5752 38.3364L40.5485 32.3142C40.6746 31.6991 40.7372 31.0727 40.7352 30.4448C40.7347 28.7231 40.3009 27.0293 39.4738 25.52C38.6467 24.0107 37.453 22.7346 36.0031 21.8096C34.5531 20.8846 32.8938 20.3406 31.1783 20.2278C29.4629 20.115 27.7467 20.4372 26.1885 21.1645C25.9911 21.2548 25.8187 21.392 25.6862 21.5642C25.5538 21.7364 25.4653 21.9384 25.4285 22.1526C25.3919 22.3641 25.4066 22.5813 25.4716 22.7859C25.5366 22.9904 25.6499 23.1763 25.8019 23.3276L31.6019 29.1228L29.2019 31.5264L23.4152 25.7178C23.2627 25.568 23.0766 25.4571 22.8724 25.3943C22.6682 25.3316 22.452 25.3189 22.2419 25.3573C22.0293 25.3928 21.8285 25.4794 21.6567 25.6096C21.4848 25.7398 21.3471 25.9098 21.2552 26.1051C20.5266 27.6707 20.2052 29.3955 20.3209 31.1189C20.4367 32.8424 20.9858 34.5085 21.9172 35.9623C22.8486 37.4162 24.1321 38.6104 25.6482 39.4341C27.1643 40.2577 28.8638 40.684 30.5885 40.6731C31.2155 40.6752 31.841 40.6125 32.4552 40.4862L38.4685 46.5217C38.5925 46.6469 38.7399 46.7462 38.9024 46.814C39.0649 46.8818 39.2392 46.9167 39.4152 46.9167C39.5912 46.9167 39.7655 46.8818 39.928 46.814C40.0904 46.7462 40.2379 46.6469 40.3619 46.5217C40.4868 46.3976 40.586 46.2499 40.6537 46.0872C40.7214 45.9245 40.7563 45.75 40.7563 45.5737C40.7563 45.3974 40.7214 45.2229 40.6537 45.0602C40.586 44.8974 40.4868 44.7498 40.3619 44.6256L33.8285 38.0827C33.6653 37.9203 33.4628 37.8029 33.2408 37.7421C33.0189 37.6812 32.785 37.679 32.5619 37.7355C31.9181 37.9082 31.255 37.9979 30.5885 38.0026C29.5913 38.0114 28.6021 37.8225 27.678 37.4468C26.754 37.0711 25.9133 36.516 25.2044 35.8135C24.4955 35.111 23.9323 34.2749 23.5475 33.3535C23.1626 32.4321 22.9636 31.4435 22.9619 30.4448C22.9601 29.9975 22.9958 29.5508 23.0685 29.1095L28.2952 34.3572C28.4191 34.4824 28.5666 34.5817 28.7291 34.6495C28.8916 34.7173 29.0658 34.7522 29.2419 34.7522C29.4179 34.7522 29.5921 34.7173 29.7546 34.6495C29.9171 34.5817 30.0646 34.4824 30.1885 34.3572L34.4285 30.0709C34.6688 29.8219 34.8032 29.4892 34.8032 29.1429C34.8032 28.7966 34.6688 28.4638 34.4285 28.2148L29.2419 22.9805C29.6826 22.9084 30.1286 22.8726 30.5752 22.8736C32.5779 22.8772 34.4974 23.6764 35.9123 25.0959C37.3272 26.5154 38.1219 28.4391 38.1219 30.4448C38.1172 31.1122 38.0276 31.7763 37.8552 32.421C37.7987 32.6444 37.801 32.8787 37.8618 33.101C37.9225 33.3233 38.0397 33.526 38.2019 33.6895L44.7352 40.2325C44.9863 40.4839 45.3268 40.6252 45.6819 40.6252C46.0369 40.6252 46.3774 40.4839 46.6285 40.2325C46.8796 39.9811 47.0206 39.64 47.0206 39.2844C47.0206 38.9289 46.8796 38.5878 46.6285 38.3364H46.5752Z" fill="#A276FF"/>
</svg>
